<?xml version="1.0" standalone="no"?>
<!DOCTYPE svg PUBLIC "-//W3C//DTD SVG 20010904//EN"
 "http://www.w3.org/TR/2001/REC-SVG-20010904/DTD/svg10.dtd">
<svg version="1.0" xmlns="http://www.w3.org/2000/svg"
 width="512.000000pt" height="512.000000pt" viewBox="0 0 512.000000 512.000000"
 preserveAspectRatio="xMidYMid meet">

<g transform="translate(0.000000,512.000000) scale(0.100000,-0.100000)"
fill="#000000" stroke="none">
<path d="M2375 5105 c-591 -83 -1042 -504 -1176 -1100 l-23 -100 -4 -1245 c-4
-1325 -1 -1428 43 -1605 122 -498 505 -882 1006 -1010 441 -113 907 0 1254
303 134 117 233 244 313 399 93 180 134 323 152 523 13 154 13 2426 0 2580
-32 363 -192 681 -460 917 -308 271 -708 394 -1105 338z m-57 -470 c130 -55
163 -223 63 -318 -20 -19 -63 -44 -96 -57 -84 -33 -194 -142 -235 -234 -61
-134 -62 -148 -69 -661 -5 -411 -8 -474 -23 -500 -71 -129 -248 -140 -342 -22
l-31 39 0 506 1 507 27 100 c50 188 169 386 293 491 72 60 122 91 210 129 88
39 143 44 202 20z m1060 -2174 c30 -14 69 -43 92 -68 70 -80 70 -77 70 -627 0
-440 -2 -500 -19 -581 -26 -128 -72 -237 -142 -344 -344 -522 -1071 -598
-1511 -157 -123 123 -200 253 -255 431 l-27 90 -4 523 c-3 458 -1 529 13 571
18 56 73 124 119 148 80 42 79 42 861 40 l750 -2 53 -24z"/>
</g>
</svg>
